# xmcd CD database file
#
# Track frame offsets:
#	150
#	15677
#	29229
#	41281
#	54084
#	70554
#	90333
#	104790
#	126976
#	139946
#	151442
#	163739
#	178070
#
# Disc length: 2594 seconds
#
# Revision: 0
# Processed by: cddbd v1.5.2PL0 Copyright (c) Steve Scherf et al.
# Submitted via: CDex 1.51
#
DISCID=ae0a200d
DTITLE=Jouko Mäki-Lohiluoma - Transitmies
DYEAR=2007
DGENRE=Country
TTITLE0=Transitmies
TTITLE1=Sinä liioittelet
TTITLE2=Kukka kämmenellä
TTITLE3=Musta aukko
TTITLE4=Perjantai
TTITLE5=Taksi porsaan kotiin ajaa
TTITLE6=Elimiä,kakkoslaatu
TTITLE7=Jäinen sydän
TTITLE8=Heinätöissä
TTITLE9=Kippis hei
TTITLE10=Valokuvaaja
TTITLE11=Sunnuntaina
TTITLE12=Vanha rakkaus
EXTD=YEAR: 2007
EXTT0=
EXTT1=
EXTT2=
EXTT3=
EXTT4=
EXTT5=
EXTT6=
EXTT7=
EXTT8=
EXTT9=
EXTT10=
EXTT11=
EXTT12=
PLAYORDER=
